<svg id="VH_Logo_M7_3" data-name="VH_Logo M7_3" xmlns="http://www.w3.org/2000/svg" width="139" height="33" viewBox="0 0 139 33">
  <path id="Path" d="M0,6.777V.1A.093.093,0,0,1,.023.025.072.072,0,0,1,.088,0H.534A.072.072,0,0,1,.6.025.093.093,0,0,1,.622.1V6.777A.093.093,0,0,1,.6,6.85a.072.072,0,0,1-.065.024H.088A.072.072,0,0,1,.023,6.85.093.093,0,0,1,0,6.777Z" transform="translate(81.139 6.372)" fill="#fff"/>
  <path id="Path-2" data-name="Path" d="M3.815,0H4.27a.074.074,0,0,1,.066.025A.092.092,0,0,1,4.358.1V6.777a.091.091,0,0,1-.022.073.073.073,0,0,1-.066.024H3.823a.131.131,0,0,1-.107-.067L.67,1.357c0-.021-.016-.029-.027-.025a.033.033,0,0,0-.019.034L.634,6.777a.092.092,0,0,1-.023.073.074.074,0,0,1-.067.024H.09A.074.074,0,0,1,.024,6.85.092.092,0,0,1,0,6.777V.1A.092.092,0,0,1,.023.026.074.074,0,0,1,.09,0H.537A.132.132,0,0,1,.645.071L3.687,5.52a.023.023,0,0,0,.027.025c.012,0,.017-.015.017-.035L3.722.1A.092.092,0,0,1,3.745.024.074.074,0,0,1,3.815,0Z" transform="translate(84.937 6.372)" fill="#fff"/>
  <path id="Path-3" data-name="Path" d="M3.812,0h.456a.074.074,0,0,1,.067.024A.092.092,0,0,1,4.358.1V6.777a.092.092,0,0,1-.023.073.074.074,0,0,1-.067.024H3.821a.132.132,0,0,1-.107-.067L.671,1.357c0-.021-.015-.029-.027-.025s-.019.015-.019.034L.635,6.777a.092.092,0,0,1-.023.073.074.074,0,0,1-.067.024H.09A.074.074,0,0,1,.024,6.85.092.092,0,0,1,0,6.777V.1A.092.092,0,0,1,.023.025.074.074,0,0,1,.09,0H.536A.132.132,0,0,1,.644.07L3.688,5.52a.023.023,0,0,0,.027.025c.012,0,.017-.015.017-.035L3.724.1A.092.092,0,0,1,3.746.026.075.075,0,0,1,3.812,0Z" transform="translate(92.487 6.372)" fill="#fff"/>
  <path id="Shape" d="M1.035,6.6a1.92,1.92,0,0,1-.762-.782A2.433,2.433,0,0,1,0,4.649V2.229A2.431,2.431,0,0,1,.273,1.063,1.912,1.912,0,0,1,1.035.287,2.266,2.266,0,0,1,2.174,0,2.3,2.3,0,0,1,3.319.28a1.908,1.908,0,0,1,.766.782,2.431,2.431,0,0,1,.273,1.166V4.647a2.448,2.448,0,0,1-.273,1.168,1.908,1.908,0,0,1-.766.782,2.309,2.309,0,0,1-1.145.278h-.05A2.281,2.281,0,0,1,1.035,6.6Z" transform="translate(98.779 6.372)" fill="#fff"/>
  <path id="Shape-2" data-name="Shape" d="M.739,5.515A1.519,1.519,0,0,1,.2,4.862,2.321,2.321,0,0,1,0,3.886V1.863A2.319,2.319,0,0,1,.2.888,1.51,1.51,0,0,1,.739.24,1.437,1.437,0,0,1,1.553,0a1.453,1.453,0,0,1,.818.234,1.507,1.507,0,0,1,.547.653,2.319,2.319,0,0,1,.195.975V3.885a2.336,2.336,0,0,1-.195.976,1.507,1.507,0,0,1-.547.653,1.461,1.461,0,0,1-.818.233H1.517A1.447,1.447,0,0,1,.739,5.515Z" transform="translate(99.399 6.941)" fill="#080808"/>
  <path id="Path-4" data-name="Path" d="M1.844,6.8.013.112,0,.069C0,.024.025,0,.075,0H.529a.1.1,0,0,1,.1.078L2.16,5.831a.025.025,0,0,0,.025.019.027.027,0,0,0,.025-.019L3.74.078A.1.1,0,0,1,3.84,0h.446c.062,0,.084.037.067.109L2.512,6.8a.1.1,0,0,1-.1.078H1.949A.1.1,0,0,1,1.844,6.8Z" transform="translate(105.7 6.372)" fill="#fff"/>
  <path id="Shape-3" data-name="Shape" d="M4.285,6.8,3.913,5.559a.036.036,0,0,0-.036-.029H1.1a.036.036,0,0,0-.037.029L.693,6.8a.107.107,0,0,1-.111.078H.08c-.068,0-.093-.035-.073-.107L2.057.078A.108.108,0,0,1,2.168,0H2.8A.108.108,0,0,1,2.91.078L4.971,6.767l.01.04c0,.045-.028.067-.083.067H4.386A.107.107,0,0,1,4.285,6.8Z" transform="translate(111.603 6.372)" fill="#fff"/>
  <path id="Path-5" data-name="Path" d="M4.358.1V.522A.091.091,0,0,1,4.335.6.076.076,0,0,1,4.267.62H2.5a.031.031,0,0,0-.027.01.037.037,0,0,0-.01.029V6.777a.091.091,0,0,1-.023.073.076.076,0,0,1-.067.024h-.46a.076.076,0,0,1-.067-.024.091.091,0,0,1-.023-.073V.654a.037.037,0,0,0-.01-.029.031.031,0,0,0-.027-.01H.091A.076.076,0,0,1,.023.591.091.091,0,0,1,0,.517V.1A.091.091,0,0,1,.023.025.076.076,0,0,1,.091,0H4.27a.076.076,0,0,1,.066.026A.092.092,0,0,1,4.358.1Z" transform="translate(117.83 6.372)" fill="#fff"/>
  <path id="Path-6" data-name="Path" d="M0,6.777V.1A.093.093,0,0,1,.023.025.072.072,0,0,1,.088,0H.534A.072.072,0,0,1,.6.025.093.093,0,0,1,.622.1V6.777A.093.093,0,0,1,.6,6.85a.072.072,0,0,1-.065.024H.088A.072.072,0,0,1,.023,6.85.093.093,0,0,1,0,6.777Z" transform="translate(124.056 6.372)" fill="#fff"/>
  <path id="Shape-4" data-name="Shape" d="M1.035,6.6a1.92,1.92,0,0,1-.762-.782A2.449,2.449,0,0,1,0,4.649V2.229A2.445,2.445,0,0,1,.273,1.063,1.912,1.912,0,0,1,1.035.287,2.269,2.269,0,0,1,2.177,0,2.3,2.3,0,0,1,3.322.28a1.913,1.913,0,0,1,.764.783,2.445,2.445,0,0,1,.273,1.166V4.647a2.45,2.45,0,0,1-.273,1.168,1.919,1.919,0,0,1-.766.782,2.316,2.316,0,0,1-1.145.278h-.05A2.289,2.289,0,0,1,1.035,6.6Z" transform="translate(127.17 6.372)" fill="#fff"/>
  <path id="Path-7" data-name="Path" d="M3.813,0H4.27a.075.075,0,0,1,.066.025A.092.092,0,0,1,4.358.1V6.777a.091.091,0,0,1-.022.073.073.073,0,0,1-.066.024H3.823a.132.132,0,0,1-.107-.067L.671,1.357C.664,1.336.655,1.327.644,1.332a.033.033,0,0,0-.019.034L.635,6.777a.092.092,0,0,1-.023.073.074.074,0,0,1-.067.024H.09A.074.074,0,0,1,.024,6.85.092.092,0,0,1,0,6.777V.1A.092.092,0,0,1,.023.025.074.074,0,0,1,.09,0H.536A.132.132,0,0,1,.644.07L3.689,5.52a.023.023,0,0,0,.027.025c.012,0,.017-.015.017-.035L3.724.1A.092.092,0,0,1,3.746.025.074.074,0,0,1,3.813,0Z" transform="translate(134.641 6.372)" fill="#fff"/>
  <path id="Path-8" data-name="Path" d="M1.041,6.62a1.861,1.861,0,0,1-.764-.748A2.229,2.229,0,0,1,0,4.755V2.111a2.181,2.181,0,0,1,.277-1.1A1.887,1.887,0,0,1,1.041.264,2.362,2.362,0,0,1,2.179,0,2.394,2.394,0,0,1,3.318.26a1.876,1.876,0,0,1,.764.728,2.116,2.116,0,0,1,.277,1.084.1.1,0,0,1-.029.077.088.088,0,0,1-.064.029l-.473.029c-.061,0-.093-.029-.093-.086V2.092A1.461,1.461,0,0,0,3.285,1,1.509,1.509,0,0,0,2.178.6a1.491,1.491,0,0,0-1.107.413A1.461,1.461,0,0,0,.656,2.092V4.778a1.461,1.461,0,0,0,.415,1.084,1.682,1.682,0,0,0,2.2,0,1.451,1.451,0,0,0,.415-1.088v-.02c0-.057.032-.086.093-.086l.473.029c.061,0,.093.029.093.086a2.164,2.164,0,0,1-.277,1.1,1.867,1.867,0,0,1-.764.733,2.394,2.394,0,0,1-1.139.259A2.361,2.361,0,0,1,1.041,6.62Z" transform="translate(81.162 19.753)" fill="#fff"/>
  <path id="Path-9" data-name="Path" d="M4.261.61H.719A.034.034,0,0,0,.69.62.036.036,0,0,0,.68.65V3.076a.036.036,0,0,0,.01.03.034.034,0,0,0,.029.01H3.2a.084.084,0,0,1,.072.024.088.088,0,0,1,.024.074v.413A.088.088,0,0,1,3.27,3.7a.084.084,0,0,1-.072.024H.719a.034.034,0,0,0-.029.01.036.036,0,0,0-.01.03V6.23a.036.036,0,0,0,.01.03.034.034,0,0,0,.029.01H4.261a.084.084,0,0,1,.072.024.088.088,0,0,1,.024.074v.408a.088.088,0,0,1-.024.074.084.084,0,0,1-.072.024H.1A.084.084,0,0,1,.025,6.85.088.088,0,0,1,0,6.776V.1A.088.088,0,0,1,.025.025.084.084,0,0,1,.1,0H4.261a.084.084,0,0,1,.072.024A.088.088,0,0,1,4.358.1V.512a.088.088,0,0,1-.024.074A.084.084,0,0,1,4.261.61Z" transform="translate(88.083 19.753)" fill="#fff"/>
  <path id="Path-10" data-name="Path" d="M3.813,0h.455a.074.074,0,0,1,.067.024A.092.092,0,0,1,4.358.1V6.776a.092.092,0,0,1-.022.074.074.074,0,0,1-.067.024H3.822a.132.132,0,0,1-.108-.069L.667,1.353A.023.023,0,0,0,.64,1.328c-.012,0-.017.015-.017.035L.636,6.776a.092.092,0,0,1-.022.074.074.074,0,0,1-.067.024H.09A.074.074,0,0,1,.023,6.85.092.092,0,0,1,0,6.776V.1A.094.094,0,0,1,.024.026.076.076,0,0,1,.09,0H.538A.132.132,0,0,1,.644.07L3.691,5.524c0,.019.015.028.027.023s.019-.015.019-.034L3.727.1A.092.092,0,0,1,3.749.027.075.075,0,0,1,3.813,0Z" transform="translate(95.004 19.753)" fill="#fff"/>
  <path id="Path-11" data-name="Path" d="M4.358.1V.522A.091.091,0,0,1,4.335.6.076.076,0,0,1,4.267.62H2.5a.031.031,0,0,0-.027.01.037.037,0,0,0-.009.03V6.776a.091.091,0,0,1-.022.074.076.076,0,0,1-.068.024h-.46a.076.076,0,0,1-.066-.026.092.092,0,0,1-.022-.073V.66A.037.037,0,0,0,1.817.63.031.031,0,0,0,1.79.62H.091A.076.076,0,0,1,.023.6.091.091,0,0,1,0,.522V.1A.091.091,0,0,1,.023.025.076.076,0,0,1,.091,0H4.27a.076.076,0,0,1,.066.026A.092.092,0,0,1,4.358.1Z" transform="translate(101.925 19.753)" fill="#fff"/>
  <path id="Path-12" data-name="Path" d="M4.261.61H.728A.034.034,0,0,0,.7.62a.036.036,0,0,0-.01.03V3.076a.036.036,0,0,0,.01.03.034.034,0,0,0,.029.01H3.206a.084.084,0,0,1,.072.024.088.088,0,0,1,.024.074v.413a.088.088,0,0,1-.024.074.084.084,0,0,1-.072.024H.728a.034.034,0,0,0-.029.01.036.036,0,0,0-.01.03V6.23a.036.036,0,0,0,.01.03.034.034,0,0,0,.029.01H4.261a.084.084,0,0,1,.072.024.088.088,0,0,1,.024.074v.408a.088.088,0,0,1-.024.074.084.084,0,0,1-.072.024H.1A.084.084,0,0,1,.025,6.85.088.088,0,0,1,0,6.776V.1A.088.088,0,0,1,.025.025.084.084,0,0,1,.1,0H4.261a.085.085,0,0,1,.072.025A.089.089,0,0,1,4.358.1V.512a.088.088,0,0,1-.024.074A.084.084,0,0,1,4.261.61Z" transform="translate(108.846 19.753)" fill="#fff"/>
  <path id="Shape-5" data-name="Shape" d="M3.68,6.805,2.311,3.763a.037.037,0,0,0-.038-.031H.692a.032.032,0,0,0-.028.01.036.036,0,0,0-.009.03v3a.09.09,0,0,1-.023.074.079.079,0,0,1-.07.024H.094a.079.079,0,0,1-.07-.024A.09.09,0,0,1,0,6.772V.1A.09.09,0,0,1,.024.026.079.079,0,0,1,.094,0H2.5A1.689,1.689,0,0,1,3.8.528a2.126,2.126,0,0,1,.139,2.536,1.583,1.583,0,0,1-.96.619c-.025.013-.031.029-.018.048L4.35,6.757a.125.125,0,0,1,.008.048c0,.045-.024.069-.074.069H3.791a.108.108,0,0,1-.111-.069Z" transform="translate(114.717 19.753)" fill="#fff"/>
  <path id="Path-13" data-name="Path" d="M77.832.7,50.561.617l-.013,4.474,16.085.047L47.869,22.753V0L32.189,16.077V0L0,33l6.206-.02,21.609-22.16v9.74l-12.1,12.409,6.2-.013L27.815,26.9v6.053h4.373V22.415L43.5,10.819V32.928L77.832.7Z" fill="#fdd200"/>
  <path id="Shape-6" data-name="Shape" d="M.739,5.515A1.519,1.519,0,0,1,.2,4.862,2.321,2.321,0,0,1,0,3.886V1.863A2.319,2.319,0,0,1,.2.888,1.51,1.51,0,0,1,.739.24,1.437,1.437,0,0,1,1.553,0a1.453,1.453,0,0,1,.818.234,1.507,1.507,0,0,1,.547.653,2.319,2.319,0,0,1,.195.975V3.885a2.336,2.336,0,0,1-.195.976,1.507,1.507,0,0,1-.547.653,1.461,1.461,0,0,1-.818.233H1.517A1.447,1.447,0,0,1,.739,5.515Z" transform="translate(127.792 6.941)" fill="#080808"/>
  <path id="Trazado_1" data-name="Trazado 1" d="M161.1,14.281h2.47L162.5,10.052h-.21Z" transform="translate(-48.307 -2.978)" fill="#090909"/>
  <path id="Path-14" data-name="Path" d="M.005.04V2.859a.042.042,0,0,0,.01.034A.035.035,0,0,0,.046,2.9h1.9a1.208,1.208,0,0,0,.962-.4,1.438,1.438,0,0,0,.367-1.045A1.505,1.505,0,0,0,2.912.408,1.24,1.24,0,0,0,1.95,0H.046A.035.035,0,0,0,.012.01.042.042,0,0,0,0,.046Z" transform="translate(115.362 20.181)" fill="#0a0909"/>
</svg>
